<svg xmlns="http://www.w3.org/2000/svg" version="1.0" width="256px" height="256px" viewBox="0 0 256 256" preserveAspectRatio="xMidYMid meet">
 <g fill="#f7f7f7" style="&#10;">
  <path d="M0 196 c0 -57.70 0.05 -60 0.90 -60 0.80 0 1 0.75 1.55 5.40 0.80 7.15 2.65 16.25 4.60 22.30 l1.55 4.95 39.70 -39.70 c38.30 -38.35 39.75 -39.70 41.70 -39.85 l2 -0.15 18.10 18.05 18.05 18.05 24.80 -24.75 24.80 -24.80 -6.85 -6.85 c-6.10 -6.05 -6.90 -7 -6.90 -8.50 0 -0.90 0.25 -1.65 0.55 -1.65 0.30 0 5.20 -0.70 10.85 -1.55 31 -4.55 40.95 -5.95 42.90 -5.95 2.70 0 2.65 -0.50 0.95 10.55 -0.65 4.50 -2.35 15.85 -3.75 25.20 -3.35 22.60 -2.80 20.25 -4.70 20.25 -1.35 0 -2.50 -0.95 -8.30 -6.75 l-6.75 -6.75 -33 33 c-31.05 31.05 -33.10 33 -34.75 33 -1.65 0 -2.95 -1.20 -19.85 -18.10 l-18.05 -18.05 -35 34.95 -35 34.95 3.25 4.75 c15.80 23.10 "/>
  
  
  
 </g>
 <g fill="#1f94f3">
  <path d="M115.75 255.50 c-0.15 -0.25 -1.30 -0.50 -2.50 -0.50 -5.55 0 -17.85 -2.75 -27.75 -6.25 -22.05 -7.70 -41.75 -21.55 -56.75 -40 -4.35 -5.35 -10.75 -14.65 -10.75 -15.65 0 -0.90 71.20 -72.10 72.10 -72.10 0.35 0 9.05 8.40 19.25 18.60 l18.65 18.65 33.65 -33.65 c18.45 -18.45 33.85 -33.60 34.10 -33.60 0.30 0 3.75 3.25 7.75 7.25 5.80 5.80 7.30 7.05 7.40 6.25 0.10 -0.55 0.25 -1 0.35 -1 0.05 0 9.85 9.65 21.70 21.45 14.90 14.80 21.55 21.75 21.55 22.45 0 0.60 -0.60 3.85 -1.30 7.20 -6.30 30.10 -23.50 57.05 -48.30 75.65 -11.50 8.65 -23.65 15 -37.15 19.45 -8.80 2.85 -20.30 5.30 -25.20 5.30 -1.10 0 -2.15 0.25 -2.30 0.50 -0.20 0.30 -4.85 0.50 -12.25 0.50 -7.40 0 -12.05 -0.20 -12.25 -0.50z"/>
  <path d="M254.50 138.80 c0 -0.80 0.30 -1.30 0.75 -1.30 0.40 0 0.75 0.25 0.75 0.55 0 0.30 -0.35 0.85 -0.75 1.25 -0.65 0.70 -0.75 0.65 -0.75 -0.50z"/>
  <path d="M0.30 137.90 c-0.55 -2.10 -0.35 -2.90 0.70 -2.90 0.85 0 1 0.35 1 2 0 2.25 -1.15 2.85 -1.70 0.90z"/>
  <path d="M254.50 118.20 c0 -1.55 1.15 -1.40 1.40 0.20 0.10 0.75 -0.10 1.10 -0.60 1.10 -0.55 0 -0.80 -0.45 -0.80 -1.30z"/>
 </g>
 <g fill="#000000" style="&#10;    /* display: none; */&#10;">
  <path d="M5.75 165.90 c-12.40 -39.70 -4.45 -83.35 21.15 -116.40 20.65 -26.60 51.45 -44.15 85.35 -48.60 6.45 -0.80 23.35 -0.85 30.75 0 16.35 1.85 34.95 8.05 49.50 16.55 34.45 20.20 58 55.90 62.55 95.05 0.80 6.60 1.15 24.95 0.50 26.20 -0.25 0.60 -0.60 2.80 -0.70 4.95 -0.10 2.15 -0.40 4.10 -0.70 4.40 -0.30 0.30 -8.10 -7.15 -21.80 -20.70 -11.75 -11.70 -21.35 -21.40 -21.35 -21.65 0 -0.40 3.50 -24.10 6.70 -45.20 0.65 -4.25 1.10 -7.85 1 -7.95 -0.15 -0.15 -10.95 1.40 -42.45 6 -5.75 0.85 -10.55 1.60 -10.60 1.65 -0.10 0.10 3.30 3.55 7.50 7.70 l7.60 7.60 -26 26 c-14.30 14.30 -26.25 26 -26.60 26 -0.35 0 -8.90 -8.30 -19.10 -18.50 -10.15 -10.15 -18.65 -18.50 -18.90 -18.50 -0.25 0 -18.55 18.15 -40.65 40.30 -22.15 22.15 -40.60 40.45 -41.05 40.70 -0.70 0.40 -1.10 -0.45 -2.70 -5.60z"/>
 </g>
</svg>